<?xml version="1.0" encoding="UTF-8" standalone="no"?>
<svg
   xmlns:dc="http://purl.org/dc/elements/1.1/"
   xmlns:cc="http://creativecommons.org/ns#"
   xmlns:rdf="http://www.w3.org/1999/02/22-rdf-syntax-ns#"
   xmlns:svg="http://www.w3.org/2000/svg"
   xmlns="http://www.w3.org/2000/svg"
   xmlns:sodipodi="http://sodipodi.sourceforge.net/DTD/sodipodi-0.dtd"
   xmlns:inkscape="http://www.inkscape.org/namespaces/inkscape"
   version="1.1"
   id="svg2"
   xml:space="preserve"
   width="176.65334"
   height="88"
   viewBox="0 0 176.65334 88"
   sodipodi:docname="Baker-McGuire Logo v2 h66px.eps"><metadata
     id="metadata8"><rdf:RDF><cc:Work
         rdf:about=""><dc:format>image/svg+xml</dc:format><dc:type
           rdf:resource="http://purl.org/dc/dcmitype/StillImage" /></cc:Work></rdf:RDF></metadata><defs
     id="defs6" /><sodipodi:namedview
     pagecolor="#ffffff"
     bordercolor="#666666"
     borderopacity="1"
     objecttolerance="10"
     gridtolerance="10"
     guidetolerance="10"
     inkscape:pageopacity="0"
     inkscape:pageshadow="2"
     inkscape:window-width="640"
     inkscape:window-height="480"
     id="namedview4" /><g
     id="g10"
     inkscape:groupmode="layer"
     inkscape:label="ink_ext_XXXXXX"
     transform="matrix(1.3333333,0,0,-1.3333333,0,88)"><g
       id="g12"
       transform="scale(0.1)"><path
         d="m 185.234,17.4258 c 0.938,-14.8008 13.95,-8.26564 13.95,-14.47658 0,-1.73047 -2.262,-1.73047 -4.223,-1.73047 -3.352,0 -9.512,0.69922 -16.57,0.69922 -5.481,0 -11.121,-0.69922 -15.52,-0.69922 -1.594,0 -1.945,0.87891 -1.945,1.60156 0,5.25782 11.109,1.39844 10.949,14.44919 l -1.77,68.3438 c 0,4.4648 -0.914,6.8789 -1.937,6.8789 -1.223,0 -2.789,-1.5313 -4.582,-5.2578 l -36.5,-74.375 c -0.863,-1.5899 -3.68,-8.82424 -5.461,-8.82424 -1.746,0 -2.996,3.8789 -3.52,5.125 L 80.5586,87.7656 c -0.5195,1.4102 -1.4336,1.9453 -2.1133,1.9453 -0.5312,0 -1.0508,-0.9023 -1.2656,-2.6562 L 75.0703,25.1836 C 74.207,1.73047 90.9453,9.51172 90.9453,3.13281 c 0,-1.75 -1.9375,-1.91406 -4.414,-1.91406 -2.254,0 -10.1993,0.69922 -15.4844,0.69922 -9.1914,0 -12.1524,-0.69922 -15.3399,-0.69922 -1.2461,0 -1.7617,0.87891 -1.7617,2.10547 0,6 11.2735,-1.22656 12.5235,17.10158 2.1093,28.75 4.1992,47.418 4.1992,66.0976 0,41.4336 -16.7227,31.5816 -16.7227,37.5276 0,1.594 1.4063,1.969 2.9766,1.969 3.1836,0 6.3437,-0.696 9.7226,-0.696 3.1602,0 6.3438,0.696 9.5157,0.696 2.4336,0 2.8164,-2.973 3.707,-4.942 L 121.777,31.5078 c 1.965,-3.668 2.68,-5.2656 3.891,-5.2656 0.875,0 2.656,3.6992 5.461,9.5391 l 41.969,84.2307 c 1.074,1.949 2.468,6.191 4.605,6.008 1.731,0 7.387,-0.696 8.285,-0.696 4.02,0 5.621,0.696 8.438,0.696 1.09,0 1.754,-1.059 1.754,-2.094 0,-5.66 -14.082,1.937 -13.399,-19.047 l 2.453,-87.4532"
         style="fill:#211d1d;fill-opacity:1;fill-rule:nonzero;stroke:none"
         id="path14" /><path
         d="m 272.316,37.3516 c 0,22.0156 17.403,40.2109 39.641,40.2109 8.813,0 20.82,-2.4922 21.356,-6.5273 0.316,-3.9024 0.156,-8.1055 0.156,-10.4219 0,-2.4688 -0.555,-3.711 -1.406,-3.711 -1.782,0 -3.719,3.3711 -4.25,4.0391 -6.004,8.1602 -13.731,10.7774 -21.868,10.7774 -14.98,0 -20.769,-15.5157 -20.769,-28.1836 0,-19.0391 11.289,-34.74223 31.183,-34.74223 13.766,0 21.493,10.19923 24.149,10.19923 0.535,0 1.41,-0.5313 1.41,-1.0586 C 341.918,15.1406 331.34,0 307.199,0 286.906,0 272.316,17.7734 272.316,37.3516"
         style="fill:#211d1d;fill-opacity:1;fill-rule:nonzero;stroke:none"
         id="path16" /><path
         d="m 530.617,66.7773 c 1.414,0 4.758,0.6915 4.758,-1.5625 0,-3.6914 -8.98,0.3399 -8.98,-11.4804 V 17.7734 C 508.227,11.9805 503.445,0 472.121,0 c -38.992,0 -63.137,24.1211 -63.137,63.2695 0,38.0705 28.555,64.3475 65.934,64.3475 30.465,0 39.309,-12.012 44.227,-12.012 1.937,0 2.656,3.192 4.597,3.192 2.442,0 1.75,-2.66 1.934,-4.039 l 1.777,-23.1096 c 0,-1.4101 -0.183,-3.1914 -1.961,-3.1914 -4.57,0 -12.48,34.055 -54.113,34.055 -31.719,0 -47.602,-26.7776 -47.602,-55.887 0,-31.2148 17.985,-60.99609 52.043,-60.99609 15.989,0 36.66,7.89059 36.66,22.89839 v 27.3399 c 0,8.2851 -15.359,4.5664 -15.359,9.0039 0,2.2617 2.442,1.9062 4.039,1.9062 h 29.457"
         style="fill:#211d1d;fill-opacity:1;fill-rule:nonzero;stroke:none"
         id="path18" /><path
         d="m 655.844,48.2656 c 0,-28.1836 18.336,-41.07029 42.152,-41.07029 33.078,0 40.695,21.86719 40.695,42.63669 v 57.145 c 0,17.984 -16.437,10.601 -16.437,17.289 0,0.851 1.281,1.754 1.777,1.754 6.887,0 13.789,-0.696 20.637,-0.696 3.359,0 6.543,0.696 9.707,0.696 0.848,0 2.285,-0.903 2.285,-1.969 0,-4.906 -10.363,-1.004 -10.363,-17.242 V 52.1484 C 746.297,43.5352 748.367,0 697.051,0 650.711,0 641.926,25.9023 641.926,53.0508 v 59.3942 c 0,10.41 -14.297,6.16 -14.297,11.821 0,1.226 2.98,1.754 3.875,1.754 4.598,0 8.992,-0.696 13.769,-0.696 5.633,0 11.258,0.696 16.739,0.696 0.902,0 5.648,0.339 5.648,-1.754 0,-4.938 -11.816,0 -11.816,-12.696 V 48.2656"
         style="fill:#211d1d;fill-opacity:1;fill-rule:nonzero;stroke:none"
         id="path20" /><path
         d="m 869.207,110.879 c -0.176,12.859 -14.285,9.32 -14.285,13.172 0,1.594 0.34,1.969 1.777,1.969 6.504,0 12.86,-0.696 19.375,-0.696 5.489,0 10.938,0.696 16.375,0.696 2.852,0 3.352,-0.375 3.352,-1.754 0,-4.254 -12.668,-0.215 -12.668,-13.387 V 16.1797 c 0,-11.96095 15.703,-7.92189 15.703,-13.23048 0,-1.21875 -0.566,-1.73047 -3.535,-1.73047 -4.102,0 -11.66,0.69922 -19.227,0.69922 -10.773,0 -14.453,-0.69922 -16.906,-0.69922 -3.152,0 -3.719,0.87891 -3.719,2.62109 0,5.13672 13.758,-0.70703 13.758,16.71096 v 90.3282"
         style="fill:#211d1d;fill-opacity:1;fill-rule:nonzero;stroke:none"
         id="path22" /><path
         d="m 1019.36,68.8984 c 0,-3.3437 10.99,-2.4609 19.25,-2.4609 7.61,0 24.49,3.1914 24.49,25.0273 0,21.5122 -16.37,28.7342 -33.65,28.7342 -6.35,0 -10.09,0.348 -10.09,-6.504 z m 64.17,-48.4726 c 12.7,-19.39064 21.36,-12.85939 21.36,-17.10158 0,-2.10547 -9.85,-2.10547 -11.44,-2.10547 -12.88,0 -19.77,9.00785 -26.46,19.02735 l -19.59,30.8906 c -6.31,9.8047 -3.68,9.2969 -23.4,9.2969 -5.65,0 -4.64,-3.1641 -4.64,-4.9414 V 18.2734 c 0,-15.14059 18.34,-9.67184 18.34,-15.6484 0,-1.78125 -1.61,-1.40625 -2.98,-1.40625 -1.59,0 -5.61,0.69922 -20.25,0.69922 -6.73,0 -13.42,-0.69922 -20.087,-0.69922 -1.055,0 -1.805,0.87891 -1.805,1.91406 0,4.4336 12.882,1.98828 12.882,15.32809 v 89.7621 c 0,16.894 -15.14,9.691 -15.14,15.703 0,1.035 1.438,2.094 3.516,2.094 3.176,0 2.277,-0.696 11.294,-0.696 10.18,0 20.28,0.696 29.42,0.696 2.82,0 41.76,3.535 41.76,-30.5005 0,-13.7578 -9.88,-25.5507 -22.21,-30.4961 l 29.43,-44.5976"
         style="fill:#211d1d;fill-opacity:1;fill-rule:nonzero;stroke:none"
         id="path24" /><path
         d="m 1212.09,74.7578 c 0,-6.0351 -0.33,-6.0351 6.74,-6.0351 h 19.03 c 18.31,0 13.54,14.1015 17.8,14.1015 1.38,0 1.89,-1.9609 1.89,-3.3242 0,-6.1602 -0.29,-12.1914 -0.29,-17.8164 0,-4.5742 0.29,-9.1914 0.29,-13.9492 0,-1.5742 -0.66,-2.2852 -1.89,-2.2852 -5.47,0 0.51,15.4922 -14.31,15.4922 h -26.07 c -3.69,0 -3.19,-2.9531 -3.19,-5.6094 V 22.8984 c 0,-10.414 -1.4,-14.64059 13.41,-14.64059 40.77,0 46.71,18.17579 49.02,18.17579 1.2,0 1.41,-1.7773 1.41,-2.1055 0,-6.3945 -4.62,-12.5312 -8.84,-17.13279 -5.62,-6.35156 -9.54,-5.97656 -17.27,-5.97656 -13.39,0 -26.75,1.06641 -40.16,0.69922 -7.1,-0.1875 -14.49,-0.69922 -21.53,-0.69922 -1.62,0 -2.68,0.34766 -2.68,1.73047 0.37,2.17187 2.16,1.82812 7.76,4.61719 4.63,2.13281 4.94,7.02339 4.94,15.33199 v 80.3596 c 0,7.965 0,16.437 -9.48,17.82 -1.41,0.32 -5.31,0.719 -5.31,2.848 0,1.398 1.06,2.094 6.19,2.094 33.31,0 42.47,-0.696 49.86,-0.696 3.56,0 19.77,0.696 25.23,0.696 1.4,0 1.76,-1.754 1.76,-3.848 0,-19.606 -2.48,-21.016 -3.56,-21.016 -4.2,0 -1.37,8.473 -4.2,12.539 -4.57,6 -22.9,4.91 -30,4.91 -16.88,0 -16.55,0.723 -16.55,-11.101 V 74.7578"
         style="fill:#211d1d;fill-opacity:1;fill-rule:nonzero;stroke:none"
         id="path26" /><path
         d="m 236.105,336.359 c -0.117,-0.027 -0.242,-0.136 -0.261,-0.261 -0.024,-0.176 0.105,-0.348 0.277,-0.371 14.75,-5.825 40.527,-0.922 69.652,18.773 30.207,20.418 48.77,72.309 20.625,103.598 -30.144,33.523 -113.046,24.433 -156.972,-35.68 -38.801,-53.098 -30.141,-163.059 83.726,-165.008 46.246,-0.797 79.532,9 109.879,29.219 53.223,35.461 88.699,95.684 119.512,147.457 43.668,73.383 85.234,142.332 156.387,188.687 62.816,40.918 97.484,35.825 125.289,24.993 18.847,-7.344 36.25,-33.582 34.949,-65.161 -0.801,-19.507 -8.359,-41.328 -28.086,-61.394 -54.863,-55.809 -117.699,-39.266 -117.699,-39.266 -0.156,0.078 -0.348,0.016 -0.426,-0.14 -0.062,-0.125 -0.035,-0.278 0.059,-0.371 0,0 5.863,-7.039 23.214,-9.786 29.989,-4.753 83.25,8.204 108.563,44.118 17.98,25.507 23.645,47.367 23.703,66.269 0.098,35.547 -22.812,59.926 -44.433,69.594 -16.575,7.402 -54.719,15.277 -101.309,-2.07 -11.93,-4.438 -26.949,-10.875 -39.352,-19.024 C 550.066,582.348 510.422,534.18 453.043,440.301 433.051,407.598 404.32,358.84 372.152,321.523 c -32.246,-37.402 -66.422,-60.503 -119,-59.73 -109.781,1.598 -91.218,112.707 -59.898,156.711 41.332,58.062 104.082,63.43 129.367,38.926 23.453,-22.723 -1.652,-78.453 -29,-99.707 C 272,340.922 253.328,337.402 236.105,336.359"
         style="fill:#231f20;fill-opacity:1;fill-rule:nonzero;stroke:none"
         id="path28" /><path
         d="m 484.934,427.586 c -2.371,1.691 -4.68,7.699 9.441,8.98 14.121,1.286 23.719,-6.82 23.719,-6.82 -19.336,-7.496 -30.781,-3.848 -33.16,-2.16 z m 106.711,161.43 c -53.704,45.097 -139.954,23.254 -178.477,-0.664 -13.184,-8.188 -31.563,-22.075 -46.539,-38.907 -20.785,-23.351 -35.102,-52.324 -20.664,-79.132 8.449,-15.696 23.89,-21.883 38.945,-22.653 28.262,-1.441 59.856,16.61 73.977,29.473 18.312,16.68 46.496,41.687 41.699,81.269 -0.039,0.102 -0.156,0.231 -0.273,0.25 -0.172,0.028 -0.348,-0.093 -0.379,-0.265 -9.09,-36.992 -30.051,-55.485 -46.723,-71.188 -15.184,-14.301 -52.125,-32.136 -70.512,-32.043 -13.215,0.063 -25.14,1.321 -31.777,13.5 -10.754,19.715 2.832,47.731 22.715,71.223 14.359,16.961 31.058,29.152 45.64,38.266 11.157,6.972 26.688,13.992 42.621,19.921 27.516,10.235 59.125,16.821 86.864,8.172 10.261,-3.199 20.867,-8.32 29.953,-16.355 44.058,-38.945 8.98,-100.336 -9.668,-122.746 -16.324,-19.617 -30.711,-28.379 -38.223,-31.965 -8.351,4.148 -22.23,9.183 -38.597,7.691 -26.829,-2.429 -19.286,-15.867 -14.766,-19.074 2.227,-1.582 7.09,-4.078 17.93,-4.195 7.773,-0.082 19.414,1.441 30.414,4.965 6.566,-6.254 21.898,-27.528 2.117,-78.746 -11.137,-28.848 -26.469,-49.54 -40.555,-61.981 -16.328,-14.414 -28.156,-19.379 -36.109,-19.836 -12.352,-0.707 -44.281,7.57 -19.301,61.082 18.414,39.457 68.188,67.887 68.188,67.887 0.039,0.015 0.093,0.07 0.109,0.113 0.031,0.078 -0.008,0.168 -0.09,0.195 0,0 -3.328,2.926 -20.367,-6.359 -17.035,-9.293 -52.559,-38.293 -61.195,-70.992 -9.082,-34.379 3.234,-58.809 34.496,-57.996 30.636,0.797 60.269,12.691 90.273,52.035 27.539,36.105 27.918,95.988 -3.867,119.863 8.84,3.262 39.449,14.707 62.547,41.781 20.344,23.852 38.41,76.415 -10.406,117.411"
         style="fill:#231f20;fill-opacity:1;fill-rule:nonzero;stroke:none"
         id="path30" /><path
         d="m 772.84,321.422 c -2.637,0.109 -4.707,-0.039 -6.309,-0.363 16.047,19.449 32.903,39.742 45.625,51.664 36.387,34.121 48.418,32.902 45.559,12.757 -2.356,-16.625 -34.543,-64.722 -67.707,-68.851 -4.285,2.266 -10.164,4.488 -17.168,4.793 z m -171.801,-56.07 c -15.012,0.218 -9.672,20.636 15.152,62.214 21.739,36.422 51.336,68.454 66.473,68.625 8.613,0.098 13.488,-7.683 11.32,-18.746 -0.5,-2.527 -1.484,-5.09 -2.968,-7.925 -0.364,-0.7 -0.852,-1.551 -1.379,-2.473 0,0 -37.43,-54.149 -40.426,-59.539 -19.711,-26.324 -35.684,-42.336 -48.172,-42.156 z m 315.68,295.605 c 25.203,36.008 38.523,44.129 44.59,40.863 6.054,-3.273 2.976,-17.281 -0.871,-26.832 C 949.121,546.863 882.215,472.34 824.18,416.277 c 0,0 42.078,72.59 92.539,144.68 z M 933.75,369.051 c 33.496,34.32 45.02,35.355 47.859,27.687 2.832,-7.672 -5.339,-28.515 -28.855,-55.539 -23.516,-27.015 -53.332,-34.07 -53.996,-22.898 5.558,11.789 16.406,31.711 34.992,50.75 z m 246.23,46.07 c -0.13,0.094 -0.3,0.067 -0.39,-0.058 -35.81,-38.614 -60.77,-52.618 -72.12,-52.383 -11.36,0.23 -9.17,9.968 -9.17,9.968 29.72,11.942 30.82,26.188 28.7,31.477 -2.02,5.066 -12,4.305 -23.12,-5.055 -11.12,-9.359 -12.97,-21.336 -12.97,-21.336 -5.7,-1.875 -11.94,-5.265 -18.69,-9.64 7.32,22.797 3.14,37.812 -8.6,37.812 -12.49,0 -26.72,-11.765 -73.386,-67.418 -15.214,-18.148 -28.574,-32.824 -40.5,-43.797 -24.55,-22.593 -42.527,-30.765 -54.812,-28.007 -16.934,3.808 -0.754,42.125 -0.754,42.125 49.602,-8.395 82.598,37.683 82.598,37.683 14.738,20.102 19.004,35.465 17.207,45.504 -1.61,8.981 -7.762,13.699 -20.653,13.766 -31.699,0.144 -69.336,-29.543 -97.316,-78.895 -3.973,-7.019 -6.856,-13.652 -8.809,-19.844 -31.465,-35.488 -54.773,-44.699 -63.457,-38.636 -9.324,6.515 1.094,22.148 0.391,33.355 -0.242,3.91 -2.793,7.016 -5.789,9.348 18.828,3.445 28.672,10.015 47.43,23.297 23,16.281 41.855,53.105 28.554,65.773 -13.574,12.926 -36.875,1.871 -54.14,-10.855 -20.594,-15.172 -48.465,-47.383 -52.176,-51.707 l 28.086,40.922 c 9.492,13.113 105.711,104.902 136.914,136.656 30.476,31.015 53.222,68.894 41.094,85.242 -9.426,12.687 -27.707,3.883 -44.395,-7.816 -14.934,-10.469 -44.25,-50.688 -44.25,-50.688 L 749.883,345.465 c -5.168,-6.481 -20.606,-25.164 -48.731,-53.445 -34.082,-34.266 -48.004,-29.625 -45.086,-17.36 2.922,12.266 25.739,44.113 25.739,44.113 l 58.508,84.938 h -25.43 l -14.981,-21.758 c -0.246,15.145 -8.664,23.926 -23.312,23.809 -24.664,-0.207 -66.785,-37.91 -90.02,-78.895 -2.175,-3.836 -4.027,-7.566 -5.586,-11.164 -34.011,-35.074 -69.046,-55.566 -69.046,-55.566 -0.153,-0.094 -0.192,-0.289 -0.102,-0.438 0.062,-0.097 0.215,-0.144 0.316,-0.144 0,0 13.516,-1.742 63.391,39.074 -4.984,-25.133 6.41,-40.918 21.59,-40.848 10.484,0.055 26.426,8.918 42.965,23.571 -0.305,-3.379 -0.153,-6.719 0.656,-9.86 4.519,-17.457 26.437,-24.566 71.285,19.141 l -21.387,-30.985 h 23.86 c 0,0 32.5,38.637 47.156,55.524 0.352,-1.117 1.047,-2.094 1.66,-2.649 1.106,-0.988 3.586,-2.628 9.504,-3.46 3.438,-0.481 8.328,-0.583 13.398,-0.051 -2.128,-5.176 -12.207,-31.512 -2.421,-43.707 10.046,-12.524 41.699,-12.707 80.527,28.523 -2.441,-22.32 9.285,-36.129 26.394,-36.047 20.684,0.102 48.262,5.629 105.559,77.582 0,0 51.971,63.332 60.531,59.559 7.24,-3.192 -11.73,-35.094 -26.85,-58.379 l -52.833,-76.789 h 25.423 l 60.11,87.281 c 0,0 11.72,18.336 27.83,23.641 0,0 -0.78,-14.063 12.96,-14.344 13.73,-0.281 42.66,10.863 76.6,58.387 0.09,0.125 0.05,0.308 -0.08,0.402"
         style="fill:#231f20;fill-opacity:1;fill-rule:nonzero;stroke:none"
         id="path32" /><path
         d="M 0,194.32 H 1324.9"
         style="fill:none;stroke:#231f20;stroke-width:2.5;stroke-linecap:butt;stroke-linejoin:miter;stroke-miterlimit:4;stroke-dasharray:none;stroke-opacity:1"
         id="path34" /></g></g></svg>
